<svg id="Group_9" data-name="Group 9" xmlns="http://www.w3.org/2000/svg" width="370.073" height="439.123" viewBox="0 0 370.073 439.123">
  <path id="Path_25" data-name="Path 25" d="M446.97,450.767H347.06a8.246,8.246,0,0,1-7.926-6.086c-10.822-39.308-23.7-75.485-39.909-109.779a8.154,8.154,0,0,1,.112-7.242l42.344-82.115a8.244,8.244,0,0,1,14.688.03l97.959,193.2A8.249,8.249,0,0,1,446.97,450.767Z" transform="translate(-85.167 -241.061)" fill="#007397"/>
  <path id="Path_26" data-name="Path 26" d="M297.253,245.772l-44.528,85.561a8.325,8.325,0,0,0,2.36,10.39c28.8,22.741,52.643,59.571,66.326,102.72a8.233,8.233,0,0,0,7.827,5.808h90.889a8.293,8.293,0,0,0,7.952-10.569c-10.288-35.44-22.041-66.992-35.038-94.05C360.4,277.642,326.614,251.787,308.309,242.2A8.2,8.2,0,0,0,297.253,245.772Z" transform="translate(-196.186 -240.528)" fill="#2791a5"/>
  <path id="Path_27" data-name="Path 27" d="M274.62,280.9,236.3,354.509a8.255,8.255,0,0,0,7.323,12.067h86.125a8.3,8.3,0,0,0,7.746-11.211c-11.755-31.6-29.324-58.567-50.053-76.875A8.286,8.286,0,0,0,274.62,280.9Z" transform="translate(-235.355 -156.854)" fill="#59c3d9"/>
  <path id="Path_28" data-name="Path 28" d="M243.625,308.915h99.91A8.245,8.245,0,0,1,351.46,315c10.822,39.308,23.7,75.485,39.913,109.779a8.166,8.166,0,0,1-.115,7.242l-42.344,82.115a8.243,8.243,0,0,1-14.687-.03l-97.959-193.2A8.248,8.248,0,0,1,243.625,308.915Z" transform="translate(-235.354 -79.498)" fill="#007397"/>
  <path id="Path_29" data-name="Path 29" d="M407.285,513.388l44.525-85.56a8.324,8.324,0,0,0-2.36-10.39c-28.8-22.741-52.643-59.57-66.322-102.72a8.24,8.24,0,0,0-7.827-5.809H284.408a8.293,8.293,0,0,0-7.952,10.569c10.288,35.44,22.041,66.992,35.037,94.051,32.64,67.989,66.428,93.844,84.732,103.426A8.207,8.207,0,0,0,407.285,513.388Z" transform="translate(-138.276 -79.51)" fill="#2791a5"/>
  <path id="Path_30" data-name="Path 30" d="M377.847,394.586l38.321-73.609a8.254,8.254,0,0,0-7.32-12.067H322.719a8.3,8.3,0,0,0-7.746,11.212c11.755,31.6,29.327,58.566,50.053,76.875A8.285,8.285,0,0,0,377.847,394.586Z" transform="translate(-47.039 -79.51)" fill="#59c3d9"/>
</svg>
